solid OpenSCAD_Model
  facet normal 0 0 -1
    outer loop
      vertex -90 90 0
      vertex 89.6 89.6 0
      vertex -89.6 89.6 0
    endloop
  endfacet
  facet normal 0 -0 -1
    outer loop
      vertex 90 90 0
      vertex 90 -90 0
      vertex 89.6 89.6 0
    endloop
  endfacet
  facet normal 0 0 -1
    outer loop
      vertex 90 -90 0
      vertex 89.6 -89.6 0
      vertex 89.6 89.6 0
    endloop
  endfacet
  facet normal 0 -0 -1
    outer loop
      vertex 89.6 -89.6 0
      vertex 90 -90 0
      vertex -90 -90 0
    endloop
  endfacet
  facet normal 0 0 -1
    outer loop
      vertex -90 90 0
      vertex -89.6 -89.6 0
      vertex -90 -90 0
    endloop
  endfacet
  facet normal 0 -0 -1
    outer loop
      vertex -89.6 -89.6 0
      vertex 89.6 -89.6 0
      vertex -90 -90 0
    endloop
  endfacet
  facet normal 0 0 -1
    outer loop
      vertex -90 90 0
      vertex -89.6 89.6 0
      vertex -89.6 -89.6 0
    endloop
  endfacet
  facet normal -0 0 -1
    outer loop
      vertex 90 90 0
      vertex 89.6 89.6 0
      vertex -90 90 0
    endloop
  endfacet
  facet normal 0 0 -1
    outer loop
      vertex 76.7428 76.7428 0
      vertex -76.7428 76.7428 0
      vertex -77.1429 77.1429 0
    endloop
  endfacet
  facet normal 0 -0 -1
    outer loop
      vertex 77.1429 77.1429 0
      vertex 77.1429 -77.1429 0
      vertex 76.7428 76.7428 0
    endloop
  endfacet
  facet normal 0 0 -1
    outer loop
      vertex 77.1429 -77.1429 0
      vertex 76.7428 -76.7428 0
      vertex 76.7428 76.7428 0
    endloop
  endfacet
  facet normal 0 -0 -1
    outer loop
      vertex 76.7428 -76.7428 0
      vertex 77.1429 -77.1429 0
      vertex -77.1429 -77.1429 0
    endloop
  endfacet
  facet normal 0 0 -1
    outer loop
      vertex -77.1429 77.1429 0
      vertex -76.7428 -76.7428 0
      vertex -77.1429 -77.1429 0
    endloop
  endfacet
  facet normal 0 -0 -1
    outer loop
      vertex -76.7428 -76.7428 0
      vertex 76.7428 -76.7428 0
      vertex -77.1429 -77.1429 0
    endloop
  endfacet
  facet normal 0 0 -1
    outer loop
      vertex -77.1429 77.1429 0
      vertex -76.7428 76.7428 0
      vertex -76.7428 -76.7428 0
    endloop
  endfacet
  facet normal -0 0 -1
    outer loop
      vertex 77.1429 77.1429 0
      vertex 76.7428 76.7428 0
      vertex -77.1429 77.1429 0
    endloop
  endfacet
  facet normal 0 0 -1
    outer loop
      vertex 63.8857 63.8857 0
      vertex -63.8857 63.8857 0
      vertex -64.2857 64.2857 0
    endloop
  endfacet
  facet normal 0 -0 -1
    outer loop
      vertex 64.2857 64.2857 0
      vertex 64.2857 -64.2857 0
      vertex 63.8857 63.8857 0
    endloop
  endfacet
  facet normal 0 0 -1
    outer loop
      vertex 64.2857 -64.2857 0
      vertex 63.8857 -63.8857 0
      vertex 63.8857 63.8857 0
    endloop
  endfacet
  facet normal 0 -0 -1
    outer loop
      vertex 63.8857 -63.8857 0
      vertex 64.2857 -64.2857 0
      vertex -64.2857 -64.2857 0
    endloop
  endfacet
  facet normal 0 0 -1
    outer loop
      vertex -64.2857 64.2857 0
      vertex -63.8857 -63.8857 0
      vertex -64.2857 -64.2857 0
    endloop
  endfacet
  facet normal 0 -0 -1
    outer loop
      vertex -63.8857 -63.8857 0
      vertex 63.8857 -63.8857 0
      vertex -64.2857 -64.2857 0
    endloop
  endfacet
  facet normal 0 0 -1
    outer loop
      vertex -64.2857 64.2857 0
      vertex -63.8857 63.8857 0
      vertex -63.8857 -63.8857 0
    endloop
  endfacet
  facet normal -0 0 -1
    outer loop
      vertex 64.2857 64.2857 0
      vertex 63.8857 63.8857 0
      vertex -64.2857 64.2857 0
    endloop
  endfacet
  facet normal 0 0 -1
    outer loop
      vertex 51.0286 51.0286 0
      vertex -51.0286 51.0286 0
      vertex -51.4286 51.4286 0
    endloop
  endfacet
  facet normal 0 -0 -1
    outer loop
      vertex 51.4286 51.4286 0
      vertex 51.4286 -51.4286 0
      vertex 51.0286 51.0286 0
    endloop
  endfacet
  facet normal 0 0 -1
    outer loop
      vertex 51.4286 -51.4286 0
      vertex 51.0286 -51.0286 0
      vertex 51.0286 51.0286 0
    endloop
  endfacet
  facet normal 0 -0 -1
    outer loop
      vertex 51.0286 -51.0286 0
      vertex 51.4286 -51.4286 0
      vertex -51.4286 -51.4286 0
    endloop
  endfacet
  facet normal 0 0 -1
    outer loop
      vertex -51.4286 51.4286 0
      vertex -51.0286 -51.0286 0
      vertex -51.4286 -51.4286 0
    endloop
  endfacet
  facet normal 0 -0 -1
    outer loop
      vertex -51.0286 -51.0286 0
      vertex 51.0286 -51.0286 0
      vertex -51.4286 -51.4286 0
    endloop
  endfacet
  facet normal 0 0 -1
    outer loop
      vertex -51.4286 51.4286 0
      vertex -51.0286 51.0286 0
      vertex -51.0286 -51.0286 0
    endloop
  endfacet
  facet normal -0 0 -1
    outer loop
      vertex 51.4286 51.4286 0
      vertex 51.0286 51.0286 0
      vertex -51.4286 51.4286 0
    endloop
  endfacet
  facet normal 0 0 -1
    outer loop
      vertex 38.1714 38.1714 0
      vertex -38.1714 38.1714 0
      vertex -38.5714 38.5714 0
    endloop
  endfacet
  facet normal 0 -0 -1
    outer loop
      vertex 38.5714 38.5714 0
      vertex 38.5714 -38.5714 0
      vertex 38.1714 38.1714 0
    endloop
  endfacet
  facet normal 0 0 -1
    outer loop
      vertex 38.5714 -38.5714 0
      vertex 38.1714 -38.1714 0
      vertex 38.1714 38.1714 0
    endloop
  endfacet
  facet normal 0 -0 -1
    outer loop
      vertex 38.1714 -38.1714 0
      vertex 38.5714 -38.5714 0
      vertex -38.5714 -38.5714 0
    endloop
  endfacet
  facet normal 0 0 -1
    outer loop
      vertex -38.5714 38.5714 0
      vertex -38.1714 -38.1714 0
      vertex -38.5714 -38.5714 0
    endloop
  endfacet
  facet normal 0 -0 -1
    outer loop
      vertex -38.1714 -38.1714 0
      vertex 38.1714 -38.1714 0
      vertex -38.5714 -38.5714 0
    endloop
  endfacet
  facet normal 0 0 -1
    outer loop
      vertex -38.5714 38.5714 0
      vertex -38.1714 38.1714 0
      vertex -38.1714 -38.1714 0
    endloop
  endfacet
  facet normal -0 0 -1
    outer loop
      vertex 38.5714 38.5714 0
      vertex 38.1714 38.1714 0
      vertex -38.5714 38.5714 0
    endloop
  endfacet
  facet normal 0 0 -1
    outer loop
      vertex 25.3143 25.3143 0
      vertex -25.3143 25.3143 0
      vertex -25.7143 25.7143 0
    endloop
  endfacet
  facet normal 0 -0 -1
    outer loop
      vertex 25.7143 25.7143 0
      vertex 25.7143 -25.7143 0
      vertex 25.3143 25.3143 0
    endloop
  endfacet
  facet normal 0 0 -1
    outer loop
      vertex 25.7143 -25.7143 0
      vertex 25.3143 -25.3143 0
      vertex 25.3143 25.3143 0
    endloop
  endfacet
  facet normal 0 -0 -1
    outer loop
      vertex 25.3143 -25.3143 0
      vertex 25.7143 -25.7143 0
      vertex -25.7143 -25.7143 0
    endloop
  endfacet
  facet normal 0 0 -1
    outer loop
      vertex -25.7143 25.7143 0
      vertex -25.3143 -25.3143 0
      vertex -25.7143 -25.7143 0
    endloop
  endfacet
  facet normal 0 -0 -1
    outer loop
      vertex -25.3143 -25.3143 0
      vertex 25.3143 -25.3143 0
      vertex -25.7143 -25.7143 0
    endloop
  endfacet
  facet normal 0 0 -1
    outer loop
      vertex -25.7143 25.7143 0
      vertex -25.3143 25.3143 0
      vertex -25.3143 -25.3143 0
    endloop
  endfacet
  facet normal -0 0 -1
    outer loop
      vertex 25.7143 25.7143 0
      vertex 25.3143 25.3143 0
      vertex -25.7143 25.7143 0
    endloop
  endfacet
  facet normal 0 0 -1
    outer loop
      vertex 12.4571 12.4571 0
      vertex -12.4571 12.4571 0
      vertex -12.8571 12.8571 0
    endloop
  endfacet
  facet normal 0 -0 -1
    outer loop
      vertex 12.8571 12.8571 0
      vertex 12.8571 -12.8571 0
      vertex 12.4571 12.4571 0
    endloop
  endfacet
  facet normal 0 0 -1
    outer loop
      vertex 12.8571 -12.8571 0
      vertex 12.4571 -12.4571 0
      vertex 12.4571 12.4571 0
    endloop
  endfacet
  facet normal 0 -0 -1
    outer loop
      vertex 12.4571 -12.4571 0
      vertex 12.8571 -12.8571 0
      vertex -12.8571 -12.8571 0
    endloop
  endfacet
  facet normal 0 0 -1
    outer loop
      vertex -12.8571 12.8571 0
      vertex -12.4571 -12.4571 0
      vertex -12.8571 -12.8571 0
    endloop
  endfacet
  facet normal 0 -0 -1
    outer loop
      vertex -12.4571 -12.4571 0
      vertex 12.4571 -12.4571 0
      vertex -12.8571 -12.8571 0
    endloop
  endfacet
  facet normal 0 0 -1
    outer loop
      vertex -12.8571 12.8571 0
      vertex -12.4571 12.4571 0
      vertex -12.4571 -12.4571 0
    endloop
  endfacet
  facet normal -0 0 -1
    outer loop
      vertex 12.8571 12.8571 0
      vertex 12.4571 12.4571 0
      vertex -12.8571 12.8571 0
    endloop
  endfacet
  facet normal 0 -0 1
    outer loop
      vertex -89.6 89.6 0.2
      vertex 89.6 89.6 0.2
      vertex -90 90 0.2
    endloop
  endfacet
  facet normal -0 0 1
    outer loop
      vertex 89.6 89.6 0.2
      vertex 90 -90 0.2
      vertex 90 90 0.2
    endloop
  endfacet
  facet normal 0 0 1
    outer loop
      vertex 89.6 89.6 0.2
      vertex 89.6 -89.6 0.2
      vertex 90 -90 0.2
    endloop
  endfacet
  facet normal 0 0 1
    outer loop
      vertex -90 -90 0.2
      vertex 90 -90 0.2
      vertex 89.6 -89.6 0.2
    endloop
  endfacet
  facet normal 0 0 1
    outer loop
      vertex -90 -90 0.2
      vertex -89.6 -89.6 0.2
      vertex -90 90 0.2
    endloop
  endfacet
  facet normal 0 0 1
    outer loop
      vertex -90 -90 0.2
      vertex 89.6 -89.6 0.2
      vertex -89.6 -89.6 0.2
    endloop
  endfacet
  facet normal 0 -0 1
    outer loop
      vertex -89.6 -89.6 0.2
      vertex -89.6 89.6 0.2
      vertex -90 90 0.2
    endloop
  endfacet
  facet normal -0 0 1
    outer loop
      vertex -90 90 0.2
      vertex 89.6 89.6 0.2
      vertex 90 90 0.2
    endloop
  endfacet
  facet normal 0 0 1
    outer loop
      vertex -77.1429 77.1429 0.2
      vertex -76.7428 76.7428 0.2
      vertex 76.7428 76.7428 0.2
    endloop
  endfacet
  facet normal -0 0 1
    outer loop
      vertex 76.7428 76.7428 0.2
      vertex 77.1429 -77.1429 0.2
      vertex 77.1429 77.1429 0.2
    endloop
  endfacet
  facet normal 0 0 1
    outer loop
      vertex 76.7428 76.7428 0.2
      vertex 76.7428 -76.7428 0.2
      vertex 77.1429 -77.1429 0.2
    endloop
  endfacet
  facet normal 0 0 1
    outer loop
      vertex -77.1429 -77.1429 0.2
      vertex 77.1429 -77.1429 0.2
      vertex 76.7428 -76.7428 0.2
    endloop
  endfacet
  facet normal 0 0 1
    outer loop
      vertex -77.1429 -77.1429 0.2
      vertex -76.7428 -76.7428 0.2
      vertex -77.1429 77.1429 0.2
    endloop
  endfacet
  facet normal 0 0 1
    outer loop
      vertex -77.1429 -77.1429 0.2
      vertex 76.7428 -76.7428 0.2
      vertex -76.7428 -76.7428 0.2
    endloop
  endfacet
  facet normal 0 -0 1
    outer loop
      vertex -76.7428 -76.7428 0.2
      vertex -76.7428 76.7428 0.2
      vertex -77.1429 77.1429 0.2
    endloop
  endfacet
  facet normal -0 0 1
    outer loop
      vertex -77.1429 77.1429 0.2
      vertex 76.7428 76.7428 0.2
      vertex 77.1429 77.1429 0.2
    endloop
  endfacet
  facet normal 0 0 1
    outer loop
      vertex -64.2857 64.2857 0.2
      vertex -63.8857 63.8857 0.2
      vertex 63.8857 63.8857 0.2
    endloop
  endfacet
  facet normal -0 0 1
    outer loop
      vertex 63.8857 63.8857 0.2
      vertex 64.2857 -64.2857 0.2
      vertex 64.2857 64.2857 0.2
    endloop
  endfacet
  facet normal 0 0 1
    outer loop
      vertex 63.8857 63.8857 0.2
      vertex 63.8857 -63.8857 0.2
      vertex 64.2857 -64.2857 0.2
    endloop
  endfacet
  facet normal 0 0 1
    outer loop
      vertex -64.2857 -64.2857 0.2
      vertex 64.2857 -64.2857 0.2
      vertex 63.8857 -63.8857 0.2
    endloop
  endfacet
  facet normal 0 0 1
    outer loop
      vertex -64.2857 -64.2857 0.2
      vertex -63.8857 -63.8857 0.2
      vertex -64.2857 64.2857 0.2
    endloop
  endfacet
  facet normal 0 0 1
    outer loop
      vertex -64.2857 -64.2857 0.2
      vertex 63.8857 -63.8857 0.2
      vertex -63.8857 -63.8857 0.2
    endloop
  endfacet
  facet normal 0 -0 1
    outer loop
      vertex -63.8857 -63.8857 0.2
      vertex -63.8857 63.8857 0.2
      vertex -64.2857 64.2857 0.2
    endloop
  endfacet
  facet normal -0 0 1
    outer loop
      vertex -64.2857 64.2857 0.2
      vertex 63.8857 63.8857 0.2
      vertex 64.2857 64.2857 0.2
    endloop
  endfacet
  facet normal 0 0 1
    outer loop
      vertex -51.4286 51.4286 0.2
      vertex -51.0286 51.0286 0.2
      vertex 51.0286 51.0286 0.2
    endloop
  endfacet
  facet normal -0 0 1
    outer loop
      vertex 51.0286 51.0286 0.2
      vertex 51.4286 -51.4286 0.2
      vertex 51.4286 51.4286 0.2
    endloop
  endfacet
  facet normal 0 0 1
    outer loop
      vertex 51.0286 51.0286 0.2
      vertex 51.0286 -51.0286 0.2
      vertex 51.4286 -51.4286 0.2
    endloop
  endfacet
  facet normal 0 0 1
    outer loop
      vertex -51.4286 -51.4286 0.2
      vertex 51.4286 -51.4286 0.2
      vertex 51.0286 -51.0286 0.2
    endloop
  endfacet
  facet normal 0 0 1
    outer loop
      vertex -51.4286 -51.4286 0.2
      vertex -51.0286 -51.0286 0.2
      vertex -51.4286 51.4286 0.2
    endloop
  endfacet
  facet normal 0 0 1
    outer loop
      vertex -51.4286 -51.4286 0.2
      vertex 51.0286 -51.0286 0.2
      vertex -51.0286 -51.0286 0.2
    endloop
  endfacet
  facet normal 0 -0 1
    outer loop
      vertex -51.0286 -51.0286 0.2
      vertex -51.0286 51.0286 0.2
      vertex -51.4286 51.4286 0.2
    endloop
  endfacet
  facet normal -0 0 1
    outer loop
      vertex -51.4286 51.4286 0.2
      vertex 51.0286 51.0286 0.2
      vertex 51.4286 51.4286 0.2
    endloop
  endfacet
  facet normal 0 0 1
    outer loop
      vertex -38.5714 38.5714 0.2
      vertex -38.1714 38.1714 0.2
      vertex 38.1714 38.1714 0.2
    endloop
  endfacet
  facet normal -0 0 1
    outer loop
      vertex 38.1714 38.1714 0.2
      vertex 38.5714 -38.5714 0.2
      vertex 38.5714 38.5714 0.2
    endloop
  endfacet
  facet normal 0 0 1
    outer loop
      vertex 38.1714 38.1714 0.2
      vertex 38.1714 -38.1714 0.2
      vertex 38.5714 -38.5714 0.2
    endloop
  endfacet
  facet normal 0 0 1
    outer loop
      vertex -38.5714 -38.5714 0.2
      vertex 38.5714 -38.5714 0.2
      vertex 38.1714 -38.1714 0.2
    endloop
  endfacet
  facet normal 0 0 1
    outer loop
      vertex -38.5714 -38.5714 0.2
      vertex -38.1714 -38.1714 0.2
      vertex -38.5714 38.5714 0.2
    endloop
  endfacet
  facet normal 0 0 1
    outer loop
      vertex -38.5714 -38.5714 0.2
      vertex 38.1714 -38.1714 0.2
      vertex -38.1714 -38.1714 0.2
    endloop
  endfacet
  facet normal 0 -0 1
    outer loop
      vertex -38.1714 -38.1714 0.2
      vertex -38.1714 38.1714 0.2
      vertex -38.5714 38.5714 0.2
    endloop
  endfacet
  facet normal -0 0 1
    outer loop
      vertex -38.5714 38.5714 0.2
      vertex 38.1714 38.1714 0.2
      vertex 38.5714 38.5714 0.2
    endloop
  endfacet
  facet normal 0 0 1
    outer loop
      vertex -25.7143 25.7143 0.2
      vertex -25.3143 25.3143 0.2
      vertex 25.3143 25.3143 0.2
    endloop
  endfacet
  facet normal -0 0 1
    outer loop
      vertex 25.3143 25.3143 0.2
      vertex 25.7143 -25.7143 0.2
      vertex 25.7143 25.7143 0.2
    endloop
  endfacet
  facet normal 0 0 1
    outer loop
      vertex 25.3143 25.3143 0.2
      vertex 25.3143 -25.3143 0.2
      vertex 25.7143 -25.7143 0.2
    endloop
  endfacet
  facet normal 0 0 1
    outer loop
      vertex -25.7143 -25.7143 0.2
      vertex 25.7143 -25.7143 0.2
      vertex 25.3143 -25.3143 0.2
    endloop
  endfacet
  facet normal 0 0 1
    outer loop
      vertex -25.7143 -25.7143 0.2
      vertex -25.3143 -25.3143 0.2
      vertex -25.7143 25.7143 0.2
    endloop
  endfacet
  facet normal 0 0 1
    outer loop
      vertex -25.7143 -25.7143 0.2
      vertex 25.3143 -25.3143 0.2
      vertex -25.3143 -25.3143 0.2
    endloop
  endfacet
  facet normal 0 -0 1
    outer loop
      vertex -25.3143 -25.3143 0.2
      vertex -25.3143 25.3143 0.2
      vertex -25.7143 25.7143 0.2
    endloop
  endfacet
  facet normal -0 0 1
    outer loop
      vertex -25.7143 25.7143 0.2
      vertex 25.3143 25.3143 0.2
      vertex 25.7143 25.7143 0.2
    endloop
  endfacet
  facet normal 0 0 1
    outer loop
      vertex -12.8571 12.8571 0.2
      vertex -12.4571 12.4571 0.2
      vertex 12.4571 12.4571 0.2
    endloop
  endfacet
  facet normal -0 0 1
    outer loop
      vertex 12.4571 12.4571 0.2
      vertex 12.8571 -12.8571 0.2
      vertex 12.8571 12.8571 0.2
    endloop
  endfacet
  facet normal 0 0 1
    outer loop
      vertex 12.4571 12.4571 0.2
      vertex 12.4571 -12.4571 0.2
      vertex 12.8571 -12.8571 0.2
    endloop
  endfacet
  facet normal 0 0 1
    outer loop
      vertex -12.8571 -12.8571 0.2
      vertex 12.8571 -12.8571 0.2
      vertex 12.4571 -12.4571 0.2
    endloop
  endfacet
  facet normal 0 0 1
    outer loop
      vertex -12.8571 -12.8571 0.2
      vertex -12.4571 -12.4571 0.2
      vertex -12.8571 12.8571 0.2
    endloop
  endfacet
  facet normal 0 0 1
    outer loop
      vertex -12.8571 -12.8571 0.2
      vertex 12.4571 -12.4571 0.2
      vertex -12.4571 -12.4571 0.2
    endloop
  endfacet
  facet normal 0 -0 1
    outer loop
      vertex -12.4571 -12.4571 0.2
      vertex -12.4571 12.4571 0.2
      vertex -12.8571 12.8571 0.2
    endloop
  endfacet
  facet normal -0 0 1
    outer loop
      vertex -12.8571 12.8571 0.2
      vertex 12.4571 12.4571 0.2
      vertex 12.8571 12.8571 0.2
    endloop
  endfacet
  facet normal 0 1 0
    outer loop
      vertex -90 90 0
      vertex 90 90 0.2
      vertex 90 90 0
    endloop
  endfacet
  facet normal 0 1 0
    outer loop
      vertex -90 90 0
      vertex -90 90 0.2
      vertex 90 90 0.2
    endloop
  endfacet
  facet normal -1 0 0
    outer loop
      vertex -90 -90 0
      vertex -90 90 0.2
      vertex -90 90 0
    endloop
  endfacet
  facet normal -1 0 0
    outer loop
      vertex -90 -90 0
      vertex -90 -90 0.2
      vertex -90 90 0.2
    endloop
  endfacet
  facet normal 0 -1 0
    outer loop
      vertex 90 -90 0
      vertex -90 -90 0.2
      vertex -90 -90 0
    endloop
  endfacet
  facet normal 0 -1 0
    outer loop
      vertex 90 -90 0
      vertex 90 -90 0.2
      vertex -90 -90 0.2
    endloop
  endfacet
  facet normal 1 0 0
    outer loop
      vertex 90 90 0
      vertex 90 -90 0.2
      vertex 90 -90 0
    endloop
  endfacet
  facet normal 1 0 -0
    outer loop
      vertex 90 90 0
      vertex 90 90 0.2
      vertex 90 -90 0.2
    endloop
  endfacet
  facet normal 1 0 -0
    outer loop
      vertex -89.6 89.6 0
      vertex -89.6 89.6 0.2
      vertex -89.6 -89.6 0
    endloop
  endfacet
  facet normal 1 -0 0
    outer loop
      vertex -89.6 -89.6 0.2
      vertex -89.6 -89.6 0
      vertex -89.6 89.6 0.2
    endloop
  endfacet
  facet normal 0 -1 0
    outer loop
      vertex 89.6 89.6 0
      vertex 89.6 89.6 0.2
      vertex -89.6 89.6 0
    endloop
  endfacet
  facet normal 0 -1 0
    outer loop
      vertex -89.6 89.6 0.2
      vertex -89.6 89.6 0
      vertex 89.6 89.6 0.2
    endloop
  endfacet
  facet normal -1 0 0
    outer loop
      vertex 89.6 -89.6 0
      vertex 89.6 -89.6 0.2
      vertex 89.6 89.6 0
    endloop
  endfacet
  facet normal -1 -0 -0
    outer loop
      vertex 89.6 89.6 0.2
      vertex 89.6 89.6 0
      vertex 89.6 -89.6 0.2
    endloop
  endfacet
  facet normal 0 1 0
    outer loop
      vertex -89.6 -89.6 0
      vertex -89.6 -89.6 0.2
      vertex 89.6 -89.6 0
    endloop
  endfacet
  facet normal 0 1 0
    outer loop
      vertex 89.6 -89.6 0.2
      vertex 89.6 -89.6 0
      vertex -89.6 -89.6 0.2
    endloop
  endfacet
  facet normal 0 1 0
    outer loop
      vertex -77.1429 77.1429 0
      vertex 77.1429 77.1429 0.2
      vertex 77.1429 77.1429 0
    endloop
  endfacet
  facet normal 0 1 0
    outer loop
      vertex -77.1429 77.1429 0
      vertex -77.1429 77.1429 0.2
      vertex 77.1429 77.1429 0.2
    endloop
  endfacet
  facet normal -1 0 0
    outer loop
      vertex -77.1429 -77.1429 0
      vertex -77.1429 77.1429 0.2
      vertex -77.1429 77.1429 0
    endloop
  endfacet
  facet normal -1 0 0
    outer loop
      vertex -77.1429 -77.1429 0
      vertex -77.1429 -77.1429 0.2
      vertex -77.1429 77.1429 0.2
    endloop
  endfacet
  facet normal 0 -1 0
    outer loop
      vertex 77.1429 -77.1429 0
      vertex -77.1429 -77.1429 0.2
      vertex -77.1429 -77.1429 0
    endloop
  endfacet
  facet normal 0 -1 0
    outer loop
      vertex 77.1429 -77.1429 0
      vertex 77.1429 -77.1429 0.2
      vertex -77.1429 -77.1429 0.2
    endloop
  endfacet
  facet normal 1 0 0
    outer loop
      vertex 77.1429 77.1429 0
      vertex 77.1429 -77.1429 0.2
      vertex 77.1429 -77.1429 0
    endloop
  endfacet
  facet normal 1 0 -0
    outer loop
      vertex 77.1429 77.1429 0
      vertex 77.1429 77.1429 0.2
      vertex 77.1429 -77.1429 0.2
    endloop
  endfacet
  facet normal 1 0 -0
    outer loop
      vertex -76.7428 76.7428 0
      vertex -76.7428 76.7428 0.2
      vertex -76.7428 -76.7428 0
    endloop
  endfacet
  facet normal 1 -0 0
    outer loop
      vertex -76.7428 -76.7428 0.2
      vertex -76.7428 -76.7428 0
      vertex -76.7428 76.7428 0.2
    endloop
  endfacet
  facet normal 0 -1 0
    outer loop
      vertex 76.7428 76.7428 0
      vertex 76.7428 76.7428 0.2
      vertex -76.7428 76.7428 0
    endloop
  endfacet
  facet normal 0 -1 0
    outer loop
      vertex -76.7428 76.7428 0.2
      vertex -76.7428 76.7428 0
      vertex 76.7428 76.7428 0.2
    endloop
  endfacet
  facet normal -1 0 0
    outer loop
      vertex 76.7428 -76.7428 0
      vertex 76.7428 -76.7428 0.2
      vertex 76.7428 76.7428 0
    endloop
  endfacet
  facet normal -1 -0 -0
    outer loop
      vertex 76.7428 76.7428 0.2
      vertex 76.7428 76.7428 0
      vertex 76.7428 -76.7428 0.2
    endloop
  endfacet
  facet normal 0 1 0
    outer loop
      vertex -76.7428 -76.7428 0
      vertex -76.7428 -76.7428 0.2
      vertex 76.7428 -76.7428 0
    endloop
  endfacet
  facet normal 0 1 0
    outer loop
      vertex 76.7428 -76.7428 0.2
      vertex 76.7428 -76.7428 0
      vertex -76.7428 -76.7428 0.2
    endloop
  endfacet
  facet normal 0 1 0
    outer loop
      vertex -64.2857 64.2857 0
      vertex 64.2857 64.2857 0.2
      vertex 64.2857 64.2857 0
    endloop
  endfacet
  facet normal 0 1 0
    outer loop
      vertex -64.2857 64.2857 0
      vertex -64.2857 64.2857 0.2
      vertex 64.2857 64.2857 0.2
    endloop
  endfacet
  facet normal -1 0 0
    outer loop
      vertex -64.2857 -64.2857 0
      vertex -64.2857 64.2857 0.2
      vertex -64.2857 64.2857 0
    endloop
  endfacet
  facet normal -1 0 0
    outer loop
      vertex -64.2857 -64.2857 0
      vertex -64.2857 -64.2857 0.2
      vertex -64.2857 64.2857 0.2
    endloop
  endfacet
  facet normal 0 -1 0
    outer loop
      vertex 64.2857 -64.2857 0
      vertex -64.2857 -64.2857 0.2
      vertex -64.2857 -64.2857 0
    endloop
  endfacet
  facet normal 0 -1 0
    outer loop
      vertex 64.2857 -64.2857 0
      vertex 64.2857 -64.2857 0.2
      vertex -64.2857 -64.2857 0.2
    endloop
  endfacet
  facet normal 1 0 0
    outer loop
      vertex 64.2857 64.2857 0
      vertex 64.2857 -64.2857 0.2
      vertex 64.2857 -64.2857 0
    endloop
  endfacet
  facet normal 1 0 -0
    outer loop
      vertex 64.2857 64.2857 0
      vertex 64.2857 64.2857 0.2
      vertex 64.2857 -64.2857 0.2
    endloop
  endfacet
  facet normal 1 0 -0
    outer loop
      vertex -63.8857 63.8857 0
      vertex -63.8857 63.8857 0.2
      vertex -63.8857 -63.8857 0
    endloop
  endfacet
  facet normal 1 -0 0
    outer loop
      vertex -63.8857 -63.8857 0.2
      vertex -63.8857 -63.8857 0
      vertex -63.8857 63.8857 0.2
    endloop
  endfacet
  facet normal 0 -1 0
    outer loop
      vertex 63.8857 63.8857 0
      vertex 63.8857 63.8857 0.2
      vertex -63.8857 63.8857 0
    endloop
  endfacet
  facet normal 0 -1 0
    outer loop
      vertex -63.8857 63.8857 0.2
      vertex -63.8857 63.8857 0
      vertex 63.8857 63.8857 0.2
    endloop
  endfacet
  facet normal -1 0 0
    outer loop
      vertex 63.8857 -63.8857 0
      vertex 63.8857 -63.8857 0.2
      vertex 63.8857 63.8857 0
    endloop
  endfacet
  facet normal -1 -0 -0
    outer loop
      vertex 63.8857 63.8857 0.2
      vertex 63.8857 63.8857 0
      vertex 63.8857 -63.8857 0.2
    endloop
  endfacet
  facet normal 0 1 0
    outer loop
      vertex -63.8857 -63.8857 0
      vertex -63.8857 -63.8857 0.2
      vertex 63.8857 -63.8857 0
    endloop
  endfacet
  facet normal 0 1 0
    outer loop
      vertex 63.8857 -63.8857 0.2
      vertex 63.8857 -63.8857 0
      vertex -63.8857 -63.8857 0.2
    endloop
  endfacet
  facet normal 0 1 0
    outer loop
      vertex -51.4286 51.4286 0
      vertex 51.4286 51.4286 0.2
      vertex 51.4286 51.4286 0
    endloop
  endfacet
  facet normal 0 1 0
    outer loop
      vertex -51.4286 51.4286 0
      vertex -51.4286 51.4286 0.2
      vertex 51.4286 51.4286 0.2
    endloop
  endfacet
  facet normal -1 0 0
    outer loop
      vertex -51.4286 -51.4286 0
      vertex -51.4286 51.4286 0.2
      vertex -51.4286 51.4286 0
    endloop
  endfacet
  facet normal -1 0 0
    outer loop
      vertex -51.4286 -51.4286 0
      vertex -51.4286 -51.4286 0.2
      vertex -51.4286 51.4286 0.2
    endloop
  endfacet
  facet normal 0 -1 0
    outer loop
      vertex 51.4286 -51.4286 0
      vertex -51.4286 -51.4286 0.2
      vertex -51.4286 -51.4286 0
    endloop
  endfacet
  facet normal 0 -1 0
    outer loop
      vertex 51.4286 -51.4286 0
      vertex 51.4286 -51.4286 0.2
      vertex -51.4286 -51.4286 0.2
    endloop
  endfacet
  facet normal 1 0 0
    outer loop
      vertex 51.4286 51.4286 0
      vertex 51.4286 -51.4286 0.2
      vertex 51.4286 -51.4286 0
    endloop
  endfacet
  facet normal 1 0 -0
    outer loop
      vertex 51.4286 51.4286 0
      vertex 51.4286 51.4286 0.2
      vertex 51.4286 -51.4286 0.2
    endloop
  endfacet
  facet normal 1 0 -0
    outer loop
      vertex -51.0286 51.0286 0
      vertex -51.0286 51.0286 0.2
      vertex -51.0286 -51.0286 0
    endloop
  endfacet
  facet normal 1 -0 0
    outer loop
      vertex -51.0286 -51.0286 0.2
      vertex -51.0286 -51.0286 0
      vertex -51.0286 51.0286 0.2
    endloop
  endfacet
  facet normal 0 -1 0
    outer loop
      vertex 51.0286 51.0286 0
      vertex 51.0286 51.0286 0.2
      vertex -51.0286 51.0286 0
    endloop
  endfacet
  facet normal 0 -1 0
    outer loop
      vertex -51.0286 51.0286 0.2
      vertex -51.0286 51.0286 0
      vertex 51.0286 51.0286 0.2
    endloop
  endfacet
  facet normal -1 0 0
    outer loop
      vertex 51.0286 -51.0286 0
      vertex 51.0286 -51.0286 0.2
      vertex 51.0286 51.0286 0
    endloop
  endfacet
  facet normal -1 -0 -0
    outer loop
      vertex 51.0286 51.0286 0.2
      vertex 51.0286 51.0286 0
      vertex 51.0286 -51.0286 0.2
    endloop
  endfacet
  facet normal 0 1 0
    outer loop
      vertex -51.0286 -51.0286 0
      vertex -51.0286 -51.0286 0.2
      vertex 51.0286 -51.0286 0
    endloop
  endfacet
  facet normal 0 1 0
    outer loop
      vertex 51.0286 -51.0286 0.2
      vertex 51.0286 -51.0286 0
      vertex -51.0286 -51.0286 0.2
    endloop
  endfacet
  facet normal 0 1 0
    outer loop
      vertex -38.5714 38.5714 0
      vertex 38.5714 38.5714 0.2
      vertex 38.5714 38.5714 0
    endloop
  endfacet
  facet normal 0 1 0
    outer loop
      vertex -38.5714 38.5714 0
      vertex -38.5714 38.5714 0.2
      vertex 38.5714 38.5714 0.2
    endloop
  endfacet
  facet normal -1 0 0
    outer loop
      vertex -38.5714 -38.5714 0
      vertex -38.5714 38.5714 0.2
      vertex -38.5714 38.5714 0
    endloop
  endfacet
  facet normal -1 0 0
    outer loop
      vertex -38.5714 -38.5714 0
      vertex -38.5714 -38.5714 0.2
      vertex -38.5714 38.5714 0.2
    endloop
  endfacet
  facet normal 0 -1 0
    outer loop
      vertex 38.5714 -38.5714 0
      vertex -38.5714 -38.5714 0.2
      vertex -38.5714 -38.5714 0
    endloop
  endfacet
  facet normal 0 -1 0
    outer loop
      vertex 38.5714 -38.5714 0
      vertex 38.5714 -38.5714 0.2
      vertex -38.5714 -38.5714 0.2
    endloop
  endfacet
  facet normal 1 0 0
    outer loop
      vertex 38.5714 38.5714 0
      vertex 38.5714 -38.5714 0.2
      vertex 38.5714 -38.5714 0
    endloop
  endfacet
  facet normal 1 0 -0
    outer loop
      vertex 38.5714 38.5714 0
      vertex 38.5714 38.5714 0.2
      vertex 38.5714 -38.5714 0.2
    endloop
  endfacet
  facet normal 1 0 -0
    outer loop
      vertex -38.1714 38.1714 0
      vertex -38.1714 38.1714 0.2
      vertex -38.1714 -38.1714 0
    endloop
  endfacet
  facet normal 1 -0 0
    outer loop
      vertex -38.1714 -38.1714 0.2
      vertex -38.1714 -38.1714 0
      vertex -38.1714 38.1714 0.2
    endloop
  endfacet
  facet normal 0 -1 0
    outer loop
      vertex 38.1714 38.1714 0
      vertex 38.1714 38.1714 0.2
      vertex -38.1714 38.1714 0
    endloop
  endfacet
  facet normal 0 -1 0
    outer loop
      vertex -38.1714 38.1714 0.2
      vertex -38.1714 38.1714 0
      vertex 38.1714 38.1714 0.2
    endloop
  endfacet
  facet normal -1 0 0
    outer loop
      vertex 38.1714 -38.1714 0
      vertex 38.1714 -38.1714 0.2
      vertex 38.1714 38.1714 0
    endloop
  endfacet
  facet normal -1 -0 -0
    outer loop
      vertex 38.1714 38.1714 0.2
      vertex 38.1714 38.1714 0
      vertex 38.1714 -38.1714 0.2
    endloop
  endfacet
  facet normal 0 1 0
    outer loop
      vertex -38.1714 -38.1714 0
      vertex -38.1714 -38.1714 0.2
      vertex 38.1714 -38.1714 0
    endloop
  endfacet
  facet normal 0 1 0
    outer loop
      vertex 38.1714 -38.1714 0.2
      vertex 38.1714 -38.1714 0
      vertex -38.1714 -38.1714 0.2
    endloop
  endfacet
  facet normal 0 1 0
    outer loop
      vertex -25.7143 25.7143 0
      vertex 25.7143 25.7143 0.2
      vertex 25.7143 25.7143 0
    endloop
  endfacet
  facet normal 0 1 0
    outer loop
      vertex -25.7143 25.7143 0
      vertex -25.7143 25.7143 0.2
      vertex 25.7143 25.7143 0.2
    endloop
  endfacet
  facet normal -1 0 0
    outer loop
      vertex -25.7143 -25.7143 0
      vertex -25.7143 25.7143 0.2
      vertex -25.7143 25.7143 0
    endloop
  endfacet
  facet normal -1 0 0
    outer loop
      vertex -25.7143 -25.7143 0
      vertex -25.7143 -25.7143 0.2
      vertex -25.7143 25.7143 0.2
    endloop
  endfacet
  facet normal 0 -1 0
    outer loop
      vertex 25.7143 -25.7143 0
      vertex -25.7143 -25.7143 0.2
      vertex -25.7143 -25.7143 0
    endloop
  endfacet
  facet normal 0 -1 0
    outer loop
      vertex 25.7143 -25.7143 0
      vertex 25.7143 -25.7143 0.2
      vertex -25.7143 -25.7143 0.2
    endloop
  endfacet
  facet normal 1 0 0
    outer loop
      vertex 25.7143 25.7143 0
      vertex 25.7143 -25.7143 0.2
      vertex 25.7143 -25.7143 0
    endloop
  endfacet
  facet normal 1 0 -0
    outer loop
      vertex 25.7143 25.7143 0
      vertex 25.7143 25.7143 0.2
      vertex 25.7143 -25.7143 0.2
    endloop
  endfacet
  facet normal 1 0 -0
    outer loop
      vertex -25.3143 25.3143 0
      vertex -25.3143 25.3143 0.2
      vertex -25.3143 -25.3143 0
    endloop
  endfacet
  facet normal 1 -0 0
    outer loop
      vertex -25.3143 -25.3143 0.2
      vertex -25.3143 -25.3143 0
      vertex -25.3143 25.3143 0.2
    endloop
  endfacet
  facet normal 0 -1 0
    outer loop
      vertex 25.3143 25.3143 0
      vertex 25.3143 25.3143 0.2
      vertex -25.3143 25.3143 0
    endloop
  endfacet
  facet normal 0 -1 0
    outer loop
      vertex -25.3143 25.3143 0.2
      vertex -25.3143 25.3143 0
      vertex 25.3143 25.3143 0.2
    endloop
  endfacet
  facet normal -1 0 0
    outer loop
      vertex 25.3143 -25.3143 0
      vertex 25.3143 -25.3143 0.2
      vertex 25.3143 25.3143 0
    endloop
  endfacet
  facet normal -1 -0 -0
    outer loop
      vertex 25.3143 25.3143 0.2
      vertex 25.3143 25.3143 0
      vertex 25.3143 -25.3143 0.2
    endloop
  endfacet
  facet normal 0 1 0
    outer loop
      vertex -25.3143 -25.3143 0
      vertex -25.3143 -25.3143 0.2
      vertex 25.3143 -25.3143 0
    endloop
  endfacet
  facet normal 0 1 0
    outer loop
      vertex 25.3143 -25.3143 0.2
      vertex 25.3143 -25.3143 0
      vertex -25.3143 -25.3143 0.2
    endloop
  endfacet
  facet normal 0 1 0
    outer loop
      vertex -12.8571 12.8571 0
      vertex 12.8571 12.8571 0.2
      vertex 12.8571 12.8571 0
    endloop
  endfacet
  facet normal 0 1 0
    outer loop
      vertex -12.8571 12.8571 0
      vertex -12.8571 12.8571 0.2
      vertex 12.8571 12.8571 0.2
    endloop
  endfacet
  facet normal -1 0 0
    outer loop
      vertex -12.8571 -12.8571 0
      vertex -12.8571 12.8571 0.2
      vertex -12.8571 12.8571 0
    endloop
  endfacet
  facet normal -1 0 0
    outer loop
      vertex -12.8571 -12.8571 0
      vertex -12.8571 -12.8571 0.2
      vertex -12.8571 12.8571 0.2
    endloop
  endfacet
  facet normal 0 -1 0
    outer loop
      vertex 12.8571 -12.8571 0
      vertex -12.8571 -12.8571 0.2
      vertex -12.8571 -12.8571 0
    endloop
  endfacet
  facet normal 0 -1 0
    outer loop
      vertex 12.8571 -12.8571 0
      vertex 12.8571 -12.8571 0.2
      vertex -12.8571 -12.8571 0.2
    endloop
  endfacet
  facet normal 1 0 0
    outer loop
      vertex 12.8571 12.8571 0
      vertex 12.8571 -12.8571 0.2
      vertex 12.8571 -12.8571 0
    endloop
  endfacet
  facet normal 1 0 -0
    outer loop
      vertex 12.8571 12.8571 0
      vertex 12.8571 12.8571 0.2
      vertex 12.8571 -12.8571 0.2
    endloop
  endfacet
  facet normal 1 0 -0
    outer loop
      vertex -12.4571 12.4571 0
      vertex -12.4571 12.4571 0.2
      vertex -12.4571 -12.4571 0
    endloop
  endfacet
  facet normal 1 -0 0
    outer loop
      vertex -12.4571 -12.4571 0.2
      vertex -12.4571 -12.4571 0
      vertex -12.4571 12.4571 0.2
    endloop
  endfacet
  facet normal 0 -1 0
    outer loop
      vertex 12.4571 12.4571 0
      vertex 12.4571 12.4571 0.2
      vertex -12.4571 12.4571 0
    endloop
  endfacet
  facet normal 0 -1 0
    outer loop
      vertex -12.4571 12.4571 0.2
      vertex -12.4571 12.4571 0
      vertex 12.4571 12.4571 0.2
    endloop
  endfacet
  facet normal -1 0 0
    outer loop
      vertex 12.4571 -12.4571 0
      vertex 12.4571 -12.4571 0.2
      vertex 12.4571 12.4571 0
    endloop
  endfacet
  facet normal -1 -0 -0
    outer loop
      vertex 12.4571 12.4571 0.2
      vertex 12.4571 12.4571 0
      vertex 12.4571 -12.4571 0.2
    endloop
  endfacet
  facet normal 0 1 0
    outer loop
      vertex -12.4571 -12.4571 0
      vertex -12.4571 -12.4571 0.2
      vertex 12.4571 -12.4571 0
    endloop
  endfacet
  facet normal 0 1 0
    outer loop
      vertex 12.4571 -12.4571 0.2
      vertex 12.4571 -12.4571 0
      vertex -12.4571 -12.4571 0.2
    endloop
  endfacet
endsolid OpenSCAD_Model
